<svg width="112" height="112" viewBox="0 0 112 112" fill="none" xmlns="http://www.w3.org/2000/svg">
<rect width="112" height="112" rx="56" fill="#0053D6"/>
<path d="M55.9727 33.9971C58.1291 33.9971 60.0561 34.2464 61.7529 34.7441C63.4143 35.2775 64.8991 35.9881 66.207 36.877C68.9644 38.7614 70.8382 41.3928 71.8281 44.7705C72.323 46.4416 72.5703 48.2553 72.5703 50.2109V97.999H60.1084V79.8115H51.8896V97.999H39.4277V50.2109C39.4277 46.2288 40.3822 42.9221 42.291 40.291C43.2809 38.9398 44.4302 37.8014 45.7383 36.877C47.0463 35.9881 48.5841 35.2774 50.3516 34.7441C52.0485 34.2464 53.9222 33.9971 55.9727 33.9971ZM55.9727 46.2646C54.8416 46.2646 53.8871 46.6019 53.1094 47.2773C52.2963 47.9885 51.8897 48.9665 51.8896 50.2109V69.8115H60.1084V50.2109C60.1084 49.2865 59.8254 48.4861 59.2598 47.8105C59.0478 47.4908 58.7828 47.2068 58.4648 46.958C58.1113 46.7447 57.7047 46.5842 57.2451 46.4775C56.821 46.3353 56.3968 46.2647 55.9727 46.2646ZM54.8105 14.001C59.1251 14.001 62.623 17.5189 62.623 21.8584C62.623 26.1978 59.1251 29.7158 54.8105 29.7158C50.496 29.7158 46.9981 26.1978 46.998 21.8584C46.998 17.5189 50.496 14.001 54.8105 14.001Z" fill="white"/>
</svg>
