<svg width="382" height="91" viewBox="0 0 382 91" fill="none" xmlns="http://www.w3.org/2000/svg">
<path d="M35.8069 39.0977V90.6911H22.3435V39.0977C22.3435 38.0996 22.038 37.2359 21.4269 36.5065C21.1977 36.161 20.9112 35.8539 20.5675 35.5852C20.1855 35.3549 19.7463 35.1821 19.2498 35.0669C18.7915 34.9134 18.3331 34.8366 17.8748 34.8366C16.6526 34.8366 15.6214 35.2013 14.7811 35.9307C13.9026 36.6984 13.4634 37.7541 13.4634 39.0977V90.6911H0L4.48765e-06 39.0977C4.86163e-06 34.7982 1.03124 31.2281 3.09372 28.3874C4.16316 26.9287 5.40444 25.7003 6.81764 24.7022C8.23083 23.7425 9.89227 22.9747 11.802 22.3989C13.6353 21.8615 15.6595 21.5928 17.8748 21.5928C20.2047 21.5928 22.2862 21.8615 24.1195 22.3989C25.9146 22.9747 27.5188 23.7425 28.932 24.7022C31.9111 26.7367 33.9354 29.5775 35.0048 33.2243C35.5395 35.0285 35.8069 36.9863 35.8069 39.0977Z" fill="#7FC8FF"/>
<path d="M25.0653 68.8926H11.7656V79.6892H25.0653V68.8926Z" fill="#7FC8FF"/>
<path d="M16.6257 16.9661C21.2871 16.9661 25.066 13.1681 25.066 8.48305C25.066 3.79799 21.2871 0 16.6257 0C11.9644 0 8.18555 3.79799 8.18555 8.48305C8.18555 13.1681 11.9644 16.9661 16.6257 16.9661Z" fill="#7FC8FF"/>
<path d="M115.529 55.7317C115.529 51.9629 116.116 48.4035 117.289 45.0534C118.463 41.6653 120.109 38.5246 122.229 35.6314C124.31 32.7762 126.79 30.3017 129.666 28.208C132.581 26.1142 135.703 24.4962 139.034 23.3542C140.699 22.7832 142.422 22.3454 144.2 22.0408C146.017 21.7363 147.853 21.584 149.708 21.584C153.53 21.584 157.126 22.1931 160.495 23.4113C163.863 24.5914 166.948 26.1903 169.749 28.208C172.966 30.6063 175.578 33.2901 177.584 36.2595C179.59 39.1908 181.085 42.1031 182.069 44.9963C182.637 46.7094 183.072 48.4606 183.375 50.2498C183.678 52.039 183.829 53.8663 183.829 55.7317C183.829 59.4624 183.243 63.098 182.069 66.6384C180.934 70.1788 179.325 73.4147 177.243 76.346C175.124 79.2392 172.607 81.7708 169.692 83.9407C166.816 86.0725 163.731 87.7095 160.438 88.8516C156.994 90.0698 153.417 90.6789 149.708 90.6789C145.923 90.6789 142.327 90.0698 138.92 88.8516C135.514 87.6334 132.41 85.9774 129.609 83.8836C126.771 81.7517 124.292 79.2582 122.172 76.4031C120.09 73.5479 118.463 70.312 117.289 66.6955C116.722 64.9824 116.286 63.2122 115.983 61.3849C115.681 59.5195 115.529 57.6351 115.529 55.7317ZM128.871 55.8459C128.871 58.1681 129.231 60.4522 129.95 62.6983C130.669 64.9443 131.653 66.9239 132.902 68.637C134.265 70.5405 135.817 72.1584 137.558 73.4908C139.299 74.7851 141.173 75.7559 143.179 76.4031C145.298 77.1644 147.493 77.5451 149.764 77.5451C152.035 77.5451 154.212 77.1835 156.293 76.4602C158.375 75.6988 160.268 74.6519 161.971 73.3195C163.674 72.0251 165.169 70.4834 166.456 68.6941C167.743 66.8668 168.727 64.8682 169.408 62.6983C169.749 61.6324 170.014 60.5284 170.203 59.3863C170.393 58.2442 170.487 57.0641 170.487 55.8459C170.487 53.5998 170.128 51.4109 169.408 49.279C168.689 47.1091 167.705 45.1676 166.456 43.4545C163.807 39.838 160.4 37.2874 156.237 35.8027C154.155 35.0794 151.998 34.7177 149.764 34.7177C147.948 34.7177 145.979 35.0223 143.86 35.6314C141.74 36.2024 139.621 37.2683 137.501 38.8291C135.76 40.1235 134.227 41.6462 132.902 43.3974C131.615 45.1486 130.631 47.071 129.95 49.1648C129.609 50.2308 129.344 51.3348 129.155 52.4768C128.966 53.5808 128.871 54.7038 128.871 55.8459Z" fill="#7FC8FF"/>
<path d="M93.1342 90.1071V34.717H82.6309V22.1543H116.98V34.717H106.476V90.1071H93.1342Z" fill="#7FC8FF"/>
<path d="M43.4785 73.3188V22.1543H56.8206V73.3188C56.8206 74.3086 57.1234 75.1651 57.729 75.8884C57.956 76.231 58.2399 76.5356 58.5806 76.8021C58.9591 77.0305 59.3943 77.2018 59.8864 77.316C60.3406 77.4683 60.7948 77.5444 61.249 77.5444C62.4602 77.5444 63.4821 77.1828 64.3148 76.4595C65.1854 75.6981 65.6206 74.6512 65.6206 73.3188V22.1543H78.9627V73.3188C78.9627 77.5825 77.9407 81.1229 75.8968 83.94C74.837 85.3866 73.6069 86.6048 72.2065 87.5946C70.806 88.5463 69.1596 89.3077 67.2671 89.8787C65.4503 90.4117 63.4443 90.6781 61.249 90.6781C58.9401 90.6781 56.8773 90.4117 55.0605 89.8787C53.2816 89.3077 51.6919 88.5463 50.2915 87.5946C47.3392 85.5769 45.3332 82.7598 44.2734 79.1433C43.7435 77.3541 43.4785 75.4126 43.4785 73.3188Z" fill="#7FC8FF"/>
<path d="M366.345 42.6113V38.5932C366.345 34.8812 365.108 33.0252 362.635 33.0252C361.494 33.0252 360.599 33.4653 359.953 34.3455C359.306 35.2256 358.982 36.4884 358.982 38.134C358.982 38.6314 359.021 39.1672 359.097 39.7412C359.211 40.3152 359.458 40.9275 359.839 41.578C360.143 42.1521 360.599 42.8409 361.208 43.6445C361.817 44.4099 362.578 45.2326 363.491 46.1128C363.948 46.6102 364.461 47.1269 365.032 47.6626C365.565 48.2366 366.173 48.8298 366.858 49.4421C368.913 51.3172 370.796 53.154 372.508 54.9526C374.259 56.7512 375.685 58.3393 376.789 59.7169C377.892 61.1711 378.767 62.5679 379.414 63.9072C380.061 65.2466 380.536 66.6242 380.841 68.0401C380.993 68.7672 381.088 69.5134 381.126 70.2788C381.202 71.0442 381.24 71.8478 381.24 72.6897C381.24 74.9857 380.993 77.1096 380.498 79.0612C380.004 80.9746 379.243 82.6966 378.215 84.2274C377.264 85.6815 376.009 86.9252 374.449 87.9585C372.927 88.9917 371.253 89.7379 369.426 90.1971C367.41 90.7329 365.241 91.0007 362.92 91.0007C358.241 91.0007 354.436 89.9866 351.506 87.9585C348.615 85.9685 346.693 83.0028 345.742 79.0612C345.247 77.1478 345 74.9474 345 72.46V66.4329H357.556V72.5175C357.556 74.737 358.012 76.459 358.925 77.6836C359.762 78.9082 361.056 79.5204 362.806 79.5204C363.415 79.5204 364.005 79.4439 364.575 79.2908C365.146 79.0995 365.622 78.8125 366.002 78.4298C366.345 78.0854 366.668 77.6644 366.972 77.167C367.277 76.6312 367.505 75.9807 367.657 75.2153C367.695 74.8709 367.733 74.5074 367.771 74.1247C367.809 73.7038 367.828 73.2828 367.828 72.8619C367.828 72.0582 367.771 71.3694 367.657 70.7954C367.543 70.1831 367.315 69.5326 366.972 68.8438C366.592 68.1549 366.059 67.447 365.374 66.7199C364.728 65.9928 363.967 65.1892 363.092 64.309C362.597 63.8498 362.045 63.3523 361.437 62.8166C360.866 62.2808 360.238 61.7068 359.553 61.0946C357.423 59.1812 355.558 57.44 353.96 55.871C352.4 54.2638 351.069 52.7139 349.965 51.2215C348.862 49.7673 347.987 48.3706 347.34 47.0312C346.731 45.6535 346.275 44.2568 345.97 42.8409C345.818 42.1521 345.704 41.425 345.628 40.6596C345.59 39.8943 345.571 39.1098 345.571 38.3062C345.571 36.2014 345.78 34.2498 346.198 32.4512C346.655 30.6144 347.359 29.0071 348.31 27.6295C350.174 24.9507 352.876 23.1522 356.414 22.2337C358.164 21.7745 360.162 21.5449 362.407 21.5449C366.668 21.5449 370.168 22.4059 372.908 24.128C373.821 24.702 374.791 25.6013 375.818 26.8259C376.846 28.0504 377.645 29.7151 378.215 31.8198C378.672 33.5418 378.9 35.4552 378.9 37.5599V42.6113H366.345Z" fill="white"/>
<path d="M341.094 39.9126C341.094 43.3185 340.39 46.2268 338.982 48.6377C338.335 49.7857 337.536 50.7998 336.585 51.6799C335.672 52.5601 334.531 53.3063 333.161 53.9186C331.867 54.4543 330.478 54.7988 328.995 54.9518V55.8703C330.364 55.8703 331.753 56.3103 333.161 57.1905C334.493 58.0706 335.539 59.2378 336.3 60.692C336.49 61.0747 336.642 61.4573 336.756 61.84C336.909 62.2227 337.042 62.6054 337.156 62.988L343.947 90.426H330.536L322.603 61.553H318.265V90.426H304.854V22.1182H324.828C326.655 22.1182 328.405 22.4052 330.079 22.9792C331.791 23.5149 333.332 24.3186 334.702 25.3901C336.071 26.4998 337.213 27.7626 338.126 29.1786C339.077 30.5945 339.819 32.2208 340.352 34.0577C340.846 35.9328 341.094 37.8844 341.094 39.9126ZM318.265 48.9247H321.404C322.127 48.9247 322.812 48.829 323.459 48.6377C324.144 48.4463 324.771 48.1402 325.342 47.7192C326.331 46.9156 327.035 45.7676 327.454 44.2751C327.606 43.6246 327.682 42.821 327.682 41.8643C327.682 39.683 327.13 37.961 326.027 36.6981C324.924 35.397 323.383 34.7465 321.404 34.7465H318.265V48.9247Z" fill="white"/>
<path d="M299.727 90.426H271.191V22.1182H299.442V34.7465H284.603V47.7766H298.3V60.405H284.603V77.7976H299.727V90.426Z" fill="white"/>
<path d="M251.143 42.6113V38.5932C251.143 34.8812 249.907 33.0252 247.434 33.0252C246.292 33.0252 245.398 33.4653 244.751 34.3455C244.105 35.2256 243.781 36.4884 243.781 38.134C243.781 38.6314 243.819 39.1672 243.895 39.7412C244.01 40.3152 244.257 40.9275 244.637 41.578C244.942 42.1521 245.398 42.8409 246.007 43.6445C246.616 44.4099 247.377 45.2326 248.29 46.1128C248.746 46.6102 249.26 47.1269 249.831 47.6626C250.363 48.2366 250.972 48.8298 251.657 49.4421C253.712 51.3172 255.595 53.154 257.307 54.9526C259.057 56.7512 260.484 58.3393 261.587 59.7169C262.691 61.1711 263.566 62.5679 264.213 63.9072C264.86 65.2466 265.335 66.6242 265.64 68.0401C265.792 68.7672 265.887 69.5134 265.925 70.2788C266.001 71.0442 266.039 71.8478 266.039 72.6897C266.039 74.9857 265.792 77.1096 265.297 79.0612C264.803 80.9746 264.042 82.6966 263.014 84.2274C262.063 85.6815 260.808 86.9252 259.248 87.9585C257.726 88.9917 256.052 89.7379 254.225 90.1971C252.209 90.7329 250.04 91.0007 247.719 91.0007C243.039 91.0007 239.235 89.9866 236.305 87.9585C233.413 85.9685 231.492 83.0028 230.541 79.0612C230.046 77.1478 229.799 74.9474 229.799 72.46V66.4329H242.354V72.5175C242.354 74.737 242.811 76.459 243.724 77.6836C244.561 78.9082 245.855 79.5204 247.605 79.5204C248.214 79.5204 248.804 79.4439 249.374 79.2908C249.945 79.0995 250.421 78.8125 250.801 78.4298C251.143 78.0854 251.467 77.6644 251.771 77.167C252.076 76.6312 252.304 75.9807 252.456 75.2153C252.494 74.8709 252.532 74.5074 252.57 74.1247C252.608 73.7038 252.627 73.2828 252.627 72.8619C252.627 72.0582 252.57 71.3694 252.456 70.7954C252.342 70.1831 252.114 69.5326 251.771 68.8438C251.391 68.1549 250.858 67.447 250.173 66.7199C249.526 65.9928 248.765 65.1892 247.89 64.309C247.396 63.8498 246.844 63.3523 246.235 62.8166C245.665 62.2808 245.037 61.7068 244.352 61.0946C242.221 59.1812 240.357 57.44 238.759 55.871C237.199 54.2638 235.867 52.7139 234.764 51.2215C233.661 49.7673 232.786 48.3706 232.139 47.0312C231.53 45.6535 231.073 44.2568 230.769 42.8409C230.617 42.1521 230.503 41.425 230.427 40.6596C230.389 39.8943 230.37 39.1098 230.37 38.3062C230.37 36.2014 230.579 34.2498 230.997 32.4512C231.454 30.6144 232.158 29.0071 233.109 27.6295C234.973 24.9507 237.675 23.1522 241.213 22.2337C242.963 21.7745 244.961 21.5449 247.206 21.5449C251.467 21.5449 254.967 22.4059 257.707 24.128C258.62 24.702 259.59 25.6013 260.617 26.8259C261.645 28.0504 262.444 29.7151 263.014 31.8198C263.471 33.5418 263.699 35.4552 263.699 37.5599V42.6113H251.143Z" fill="white"/>
<path d="M189.584 73.5499V22.1182H202.996V73.5499C202.996 74.5449 203.3 75.4059 203.909 76.133C204.137 76.4774 204.423 76.7835 204.765 77.0514C205.145 77.281 205.583 77.4532 206.078 77.568C206.534 77.7211 206.991 77.7976 207.447 77.7976C208.665 77.7976 209.692 77.4341 210.529 76.707C211.404 75.9416 211.842 74.8893 211.842 73.5499V22.1182H225.253V73.5499C225.253 77.8359 224.226 81.3948 222.172 84.2266C221.106 85.6808 219.87 86.9053 218.462 87.9003C217.054 88.857 215.399 89.6223 213.497 90.1964C211.671 90.7321 209.654 91 207.447 91C205.126 91 203.053 90.7321 201.227 90.1964C199.438 89.6223 197.84 88.857 196.433 87.9003C193.465 85.8721 191.448 83.0403 190.383 79.4049C189.85 77.6063 189.584 75.6546 189.584 73.5499Z" fill="white"/>
</svg>
